<svg xmlns="http://www.w3.org/2000/svg" xmlns:xlink="http://www.w3.org/1999/xlink" width="231" height="70" viewBox="0 0 231 70"><defs><clipPath id="a"><rect width="231" height="70" fill="none"/></clipPath></defs><g opacity="0.55" clip-path="url(#a)"><g transform="translate(-75 -148)"><circle cx="3.5" cy="3.5" r="3.5" transform="translate(75 148)" fill="#fff"/></g><g transform="translate(-48 -148)"><circle cx="3.5" cy="3.5" r="3.5" transform="translate(75 148)" fill="#fff"/></g><g transform="translate(-21 -148)"><circle cx="3.5" cy="3.5" r="3.5" transform="translate(75 148)" fill="#fff"/></g><g transform="translate(6 -148)"><circle cx="3.5" cy="3.5" r="3.5" transform="translate(75 148)" fill="#fff"/></g><g transform="translate(33 -148)"><circle cx="3.5" cy="3.5" r="3.5" transform="translate(75 148)" fill="#fff"/></g><g transform="translate(60 -148)"><circle cx="3.5" cy="3.5" r="3.5" transform="translate(75 148)" fill="#fff"/></g><g transform="translate(87 -148)"><circle cx="3.5" cy="3.5" r="3.5" transform="translate(75 148)" fill="#fff"/></g><g transform="translate(114 -148)"><circle cx="3.5" cy="3.5" r="3.5" transform="translate(75 148)" fill="#fff"/></g><g transform="translate(141 -148)"><circle cx="3.5" cy="3.5" r="3.5" transform="translate(75 148)" fill="#fff"/></g><g transform="translate(-75 -121)"><circle cx="3.5" cy="3.5" r="3.5" transform="translate(75 148)" fill="#fff"/></g><g transform="translate(-48 -121)"><circle cx="3.5" cy="3.5" r="3.5" transform="translate(75 148)" fill="#fff"/></g><g transform="translate(-21 -121)"><circle cx="3.5" cy="3.5" r="3.5" transform="translate(75 148)" fill="#fff"/></g><g transform="translate(6 -121)"><circle cx="3.5" cy="3.5" r="3.5" transform="translate(75 148)" fill="#fff"/></g><g transform="translate(33 -121)"><circle cx="3.5" cy="3.5" r="3.5" transform="translate(75 148)" fill="#fff"/></g><g transform="translate(60 -121)"><circle cx="3.5" cy="3.5" r="3.5" transform="translate(75 148)" fill="#fff"/></g><g transform="translate(87 -121)"><circle cx="3.5" cy="3.5" r="3.5" transform="translate(75 148)" fill="#fff"/></g><g transform="translate(114 -121)"><circle cx="3.5" cy="3.5" r="3.5" transform="translate(75 148)" fill="#fff"/></g><g transform="translate(141 -121)"><circle cx="3.5" cy="3.5" r="3.5" transform="translate(75 148)" fill="#fff"/></g><g transform="translate(-75 -94)"><circle cx="3.5" cy="3.5" r="3.5" transform="translate(75 148)" fill="#fff"/></g><g transform="translate(-48 -94)"><circle cx="3.5" cy="3.5" r="3.5" transform="translate(75 148)" fill="#fff"/></g><g transform="translate(-21 -94)"><circle cx="3.5" cy="3.5" r="3.5" transform="translate(75 148)" fill="#fff"/></g><g transform="translate(6 -94)"><circle cx="3.5" cy="3.5" r="3.5" transform="translate(75 148)" fill="#fff"/></g><g transform="translate(33 -94)"><circle cx="3.5" cy="3.5" r="3.5" transform="translate(75 148)" fill="#fff"/></g><g transform="translate(60 -94)"><circle cx="3.5" cy="3.5" r="3.5" transform="translate(75 148)" fill="#fff"/></g><g transform="translate(87 -94)"><circle cx="3.5" cy="3.5" r="3.5" transform="translate(75 148)" fill="#fff"/></g><g transform="translate(114 -94)"><circle cx="3.5" cy="3.5" r="3.5" transform="translate(75 148)" fill="#fff"/></g><g transform="translate(141 -94)"><circle cx="3.5" cy="3.5" r="3.5" transform="translate(75 148)" fill="#fff"/></g></g></svg>