<svg xmlns="http://www.w3.org/2000/svg" xmlns:xlink="http://www.w3.org/1999/xlink" width="85.819" height="101.375" viewBox="0 0 85.819 101.375">
  <defs>
    <radialGradient id="radial-gradient" cx="0.5" cy="0.5" r="0.402" gradientUnits="objectBoundingBox">
      <stop offset="0" stop-color="#ff855a"/>
      <stop offset="1" stop-color="#4e4e4e"/>
    </radialGradient>
    <clipPath id="clip-path">
      <path id="Path_116472" data-name="Path 116472" d="M2835.416-1270.932c15.157,4.37,28.811-4.37,28.811-4.37s14.474-6.554,14.884-16.932-1.536-20.789-11.743-31-16.522-10.1-27.992-10.1-21.847.136-29.084,12.426c-4.221,5.841-4.233,10.377-6.145,16.112-.458,4.27-1.682,10.351,1.229,15.566C2812.407-1276.633,2820.26-1275.3,2835.416-1270.932Z" transform="translate(-2803.499 1333.333)" fill="#ff855a"/>
    </clipPath>
  </defs>
  <g id="logo" transform="translate(-1577.5 1505.477)">
    <circle id="Ellipse_8996" data-name="Ellipse 8996" cx="42.909" cy="42.909" r="42.909" transform="translate(1577.5 -1489.92)" fill="url(#radial-gradient)"/>
    <path id="Path_116471" data-name="Path 116471" d="M2835.416-1270.932c15.157,4.37,28.811-4.37,28.811-4.37s14.474-6.554,14.884-16.932-1.536-20.789-11.743-31-16.522-10.1-27.992-10.1-17.478,5.325-29.084,12.426c-4.221,5.841-4.233,10.377-6.145,16.112-.458,4.27-1.682,10.351,1.229,15.566C2812.407-1276.633,2820.26-1275.3,2835.416-1270.932Z" transform="translate(-1221.595 -145.39)" fill="#fff"/>
    <g id="Mask_Group_17" data-name="Mask Group 17" transform="translate(1581.903 -1478.723)" clip-path="url(#clip-path)">
      <path id="Path_116470" data-name="Path 116470" d="M2854.159-1351.706s-4.182-.478-6.622-2.731c-1.142-1.054-1.314-5.019-3.823-6.281-2.746-1.381-7.783,0-7.783,0s-3.379,4.574-8.056,4.37-3.106-3.892-7.237-5.189-5.394-1.3-8.739,0c-1.616.626-4.327,4.661-7.1,4.369-2.865-.3-6.5-4.14-8.739-4.369-4.335-.444-5.462.273-8.329,3.414-1.354.8-1.837,3.584-3.414,4.369-2.138,1.066-5.189,0-5.189,0s-7.783-19.526-6.418-19.662,2.048-18.843,3.96-21.028,73.735-6.964,77.49-2.185,11.675,25.261,11.948,31.269S2854.159-1351.706,2854.159-1351.706Z" transform="translate(-2778.888 1385.296)" fill="#ff685b"/>
    </g>
    <path id="Path_116461" data-name="Path 116461" d="M16.364,39.8s9.6-10.7,6.722-20.7C21.47,13.488,16.907,8.117,12.206,4.334A29.15,29.15,0,0,0,4.334,0a34.763,34.763,0,0,1,3.98,4.334c2.147,2.747,5.037,7.8,4.511,11.322C11.808,22.467,0,27.42,0,27.42a72.138,72.138,0,0,1,8.934,5.749A83.244,83.244,0,0,1,16.364,39.8Z" transform="matrix(0.999, -0.035, 0.035, 0.999, 1628.29, -1503.423)" fill="#ff685b"/>
    <path id="Path_116462" data-name="Path 116462" d="M16.364,0s9.6,10.7,6.722,20.7c-1.615,5.617-6.178,10.988-10.879,14.771A29.151,29.151,0,0,1,4.334,39.8a34.765,34.765,0,0,0,3.98-4.334c2.147-2.747,5.037-7.8,4.511-11.322C11.808,17.336,0,12.383,0,12.383A72.137,72.137,0,0,0,8.934,6.634,83.243,83.243,0,0,0,16.364,0Z" transform="matrix(-0.999, -0.035, 0.035, -0.999, 1609.911, -1464.873)" fill="#ff685b"/>
    <path id="Path_116464" data-name="Path 116464" d="M3031.2-1241s-1.031.741-1.6.314-1.993-.768-1.106-1.707a6.013,6.013,0,0,1,1.639-.778c1.326-.584,3.018-1.27,3.018-1.27l2.307-.615,2.745-.273s-.1.483-.9.888c-.852.43-2.509.841-3.469,1.434A14.4,14.4,0,0,0,3031.2-1241Z" transform="translate(-1400.285 -215.366)" fill="#0e111c"/>
    <path id="Path_116465" data-name="Path 116465" d="M3035.22-1241s1.031.741,1.6.314,1.994-.768,1.106-1.707a6.013,6.013,0,0,0-1.639-.778c-1.326-.584-3.018-1.27-3.018-1.27l-2.308-.615-2.745-.273s.1.483.9.888c.852.43,2.509.841,3.468,1.434A14.4,14.4,0,0,1,3035.22-1241Z" transform="translate(-1428.96 -215.366)" fill="#0e111c"/>
    <path id="Path_116466" data-name="Path 116466" d="M2937.106-1273.494c1.689-1.084,1.767-3,.819-4.95s-6.145-3.38-7.681-1.229a3.82,3.82,0,0,0,1.126,5.735C2933.343-1272.726,2935.417-1272.41,2937.106-1273.494Z" transform="translate(-1321.715 -187.205)" fill="#fff"/>
    <path id="Path_116467" data-name="Path 116467" d="M2930.834-1273.494c-1.689-1.084-1.767-3-.819-4.95s6.145-3.38,7.681-1.229a3.82,3.82,0,0,1-1.126,5.735C2934.6-1272.726,2932.524-1272.41,2930.834-1273.494Z" transform="translate(-1307.583 -187.205)" fill="#fff"/>
    <path id="Path_116468" data-name="Path 116468" d="M2917.03-1201.571a22.114,22.114,0,0,0,4.165-3.755c1.3-1.758,1.536-2.748.41-4.233-.541-.713-3.457-1.792-5.667-1.775a7.057,7.057,0,0,0-3.823,1.161s-1.3,2.7-.342,4.847,4.165,3.755,4.165,3.755.358,1.382-1.912,2.458a36.063,36.063,0,0,1-7.168,1.843,16.672,16.672,0,0,1-4.574-.956c-2.031-.819-2.936-3.209-3.823-1.912s-.666,1.417,1.639,4.916c1.357,2.061,3.763,3.628,5.189,5.257.926,1.058,3.451,4.826,5.121,6.145,4.062,3.209,10.446,0,10.446,0s1.134-1.156,2.867-3.141a25.182,25.182,0,0,1,2.867-3.414,12.352,12.352,0,0,1,3.482-1.5,10.8,10.8,0,0,0,4.1-2.526c2.321-2.185,2.7-4.386,1.707-4.711s-3.345.546-3.345.546a14.325,14.325,0,0,1-5.189,1.3,23.252,23.252,0,0,1-6.145-.956C2917.354-1199.062,2917.03-1201.571,2917.03-1201.571Z" transform="translate(-1296.723 -242.401)"/>
    <path id="Path_116469" data-name="Path 116469" d="M2938.361-1142.859c.327-1.442,1.624-1.718,2.8-2.321a21.143,21.143,0,0,1,7.715-1.5,12.486,12.486,0,0,1,5.325,1.092c1.511.588,2.908,1.269,3.345,3.072.836,3.448-4.54,11.538-7.851,13.928s-6.554-1.366-6.554-1.366S2937.558-1139.326,2938.361-1142.859Z" transform="translate(-1328.772 -292.989)" fill="#ff685b"/>
  </g>
</svg>
